<svg width="133" height="40" viewBox="0 0 133 40" fill="none" xmlns="http://www.w3.org/2000/svg">
<path d="M10.032 13.08H6.816V27.912C6.816 28.488 6.896 28.872 7.056 29.064C7.248 29.224 7.632 29.304 8.208 29.304H10.032V33H6.96C3.952 33 2.448 31.592 2.448 28.776V13.08H0.24V9.576H2.448V5.592H6.816V9.576H10.032V13.08ZM16.98 9.576H21.684C24.692 9.576 26.196 11 26.196 13.848V22.632H16.74V28.2C16.74 28.744 16.836 29.112 17.028 29.304C17.22 29.496 17.604 29.592 18.18 29.592H20.388C20.964 29.592 21.348 29.496 21.54 29.304C21.732 29.112 21.828 28.728 21.828 28.152V26.232H26.052V28.776C26.052 31.592 24.564 33 21.588 33H16.98C14.004 33 12.516 31.592 12.516 28.776V13.848C12.516 11 14.004 9.576 16.98 9.576ZM16.74 19.464H21.924V14.376C21.924 13.832 21.828 13.464 21.636 13.272C21.476 13.08 21.108 12.984 20.532 12.984H18.18C17.604 12.984 17.22 13.08 17.028 13.272C16.836 13.464 16.74 13.832 16.74 14.376V19.464ZM43.1569 16.968H38.8849V14.472C38.8849 13.896 38.7889 13.528 38.5969 13.368C38.4049 13.176 38.0209 13.08 37.4449 13.08H35.3809C34.8049 13.08 34.4209 13.176 34.2289 13.368C34.0369 13.528 33.9409 13.896 33.9409 14.472V28.104C33.9409 28.68 34.0369 29.064 34.2289 29.256C34.4209 29.416 34.8049 29.496 35.3809 29.496H37.4449C38.0209 29.496 38.4049 29.416 38.5969 29.256C38.7889 29.064 38.8849 28.68 38.8849 28.104V25.608H43.1569V28.776C43.1569 31.592 41.6529 33 38.6449 33H34.0849C31.1089 33 29.6209 31.592 29.6209 28.776V13.848C29.6209 11 31.1089 9.576 34.0849 9.576H38.6449C41.6529 9.576 43.1569 11 43.1569 13.848V16.968ZM54.033 9.576H55.713C58.625 9.576 60.081 11 60.081 13.848V33H55.761V14.472C55.761 13.896 55.665 13.528 55.473 13.368C55.281 13.176 54.897 13.08 54.321 13.08H52.641C52.065 13.08 51.649 13.208 51.393 13.464C51.169 13.72 51.057 14.152 51.057 14.76V33H46.737V0.887999H51.057V11.448C51.473 10.2 52.465 9.576 54.033 9.576ZM63.6923 33V27.096H68.5403V33H63.6923ZM80.9261 0.887999H85.2461V33H80.9261V31.128C80.5101 32.376 79.5181 33 77.9501 33H76.2221C73.3421 33 71.9021 31.592 71.9021 28.776V13.8C71.9021 10.952 73.3421 9.528 76.2221 9.528H77.9501C79.5181 9.528 80.5101 10.152 80.9261 11.4V0.887999ZM77.6621 29.496H79.3421C79.9181 29.496 80.3181 29.368 80.5421 29.112C80.7981 28.856 80.9261 28.424 80.9261 27.816V14.712C80.9261 14.104 80.7981 13.672 80.5421 13.416C80.3181 13.16 79.9181 13.032 79.3421 13.032H77.6621C77.0861 13.032 76.7021 13.128 76.5101 13.32C76.3181 13.512 76.2221 13.88 76.2221 14.424V28.104C76.2221 28.68 76.3181 29.064 76.5101 29.256C76.7021 29.416 77.0861 29.496 77.6621 29.496ZM97.599 9.528H98.559V13.272H96.831C94.815 13.272 93.807 14.456 93.807 16.824V33H89.487V9.576H93.807V12.456C94.063 11.624 94.511 10.936 95.151 10.392C95.823 9.816 96.639 9.528 97.599 9.528ZM105.101 9.576H110.237C113.213 9.576 114.701 11 114.701 13.848V28.776C114.701 31.592 113.213 33 110.237 33H105.101C102.157 33 100.685 31.592 100.685 28.776V13.848C100.685 11 102.157 9.576 105.101 9.576ZM110.429 28.152V14.424C110.429 13.848 110.333 13.464 110.141 13.272C109.949 13.08 109.565 12.984 108.989 12.984H106.349C105.773 12.984 105.389 13.08 105.197 13.272C105.037 13.464 104.957 13.848 104.957 14.424V28.152C104.957 28.728 105.037 29.112 105.197 29.304C105.389 29.496 105.773 29.592 106.349 29.592H108.989C109.565 29.592 109.949 29.496 110.141 29.304C110.333 29.112 110.429 28.728 110.429 28.152ZM125.986 9.576H127.666C130.578 9.576 132.034 11 132.034 13.848V28.776C132.034 31.592 130.578 33 127.666 33H125.986C124.418 33 123.426 32.376 123.01 31.128V39.624H118.69V9.576H123.01V11.448C123.426 10.2 124.418 9.576 125.986 9.576ZM127.714 28.104V14.472C127.714 13.896 127.618 13.528 127.426 13.368C127.234 13.176 126.85 13.08 126.274 13.08H124.594C124.018 13.08 123.602 13.208 123.346 13.464C123.122 13.72 123.01 14.152 123.01 14.76V27.816C123.01 28.424 123.122 28.856 123.346 29.112C123.602 29.368 124.018 29.496 124.594 29.496H126.274C126.85 29.496 127.234 29.416 127.426 29.256C127.618 29.064 127.714 28.68 127.714 28.104Z" fill="white"/>
</svg>
