<svg width="100" height="30" viewBox="0 0 100 30" fill="none" xmlns="http://www.w3.org/2000/svg">
<path d="M7.524 10.06H5.112V21.184C5.112 21.616 5.172 21.904 5.292 22.048C5.436 22.168 5.724 22.228 6.156 22.228H7.524V25H5.22C2.964 25 1.836 23.944 1.836 21.832V10.06H0.18V7.432H1.836V4.444H5.112V7.432H7.524V10.06ZM12.735 7.432H16.263C18.519 7.432 19.647 8.5 19.647 10.636V17.224H12.555V21.4C12.555 21.808 12.627 22.084 12.771 22.228C12.915 22.372 13.203 22.444 13.635 22.444H15.291C15.723 22.444 16.011 22.372 16.155 22.228C16.299 22.084 16.371 21.796 16.371 21.364V19.924H19.539V21.832C19.539 23.944 18.423 25 16.191 25H12.735C10.503 25 9.387 23.944 9.387 21.832V10.636C9.387 8.5 10.503 7.432 12.735 7.432ZM12.555 14.848H16.443V11.032C16.443 10.624 16.371 10.348 16.227 10.204C16.107 10.06 15.831 9.988 15.399 9.988H13.635C13.203 9.988 12.915 10.06 12.771 10.204C12.627 10.348 12.555 10.624 12.555 11.032V14.848ZM32.3677 12.976H29.1637V11.104C29.1637 10.672 29.0917 10.396 28.9477 10.276C28.8037 10.132 28.5157 10.06 28.0837 10.06H26.5357C26.1037 10.06 25.8157 10.132 25.6717 10.276C25.5277 10.396 25.4557 10.672 25.4557 11.104V21.328C25.4557 21.76 25.5277 22.048 25.6717 22.192C25.8157 22.312 26.1037 22.372 26.5357 22.372H28.0837C28.5157 22.372 28.8037 22.312 28.9477 22.192C29.0917 22.048 29.1637 21.76 29.1637 21.328V19.456H32.3677V21.832C32.3677 23.944 31.2397 25 28.9837 25H25.5637C23.3317 25 22.2157 23.944 22.2157 21.832V10.636C22.2157 8.5 23.3317 7.432 25.5637 7.432H28.9837C31.2397 7.432 32.3677 8.5 32.3677 10.636V12.976ZM40.5248 7.432H41.7848C43.9688 7.432 45.0608 8.5 45.0608 10.636V25H41.8208V11.104C41.8208 10.672 41.7488 10.396 41.6048 10.276C41.4608 10.132 41.1728 10.06 40.7408 10.06H39.4808C39.0488 10.06 38.7368 10.156 38.5448 10.348C38.3768 10.54 38.2928 10.864 38.2928 11.32V25H35.0528V0.915999H38.2928V8.836C38.6048 7.9 39.3488 7.432 40.5248 7.432ZM47.7692 25V20.572H51.4052V25H47.7692ZM60.6946 0.915999H63.9346V25H60.6946V23.596C60.3826 24.532 59.6386 25 58.4626 25H57.1666C55.0066 25 53.9266 23.944 53.9266 21.832V10.6C53.9266 8.464 55.0066 7.396 57.1666 7.396H58.4626C59.6386 7.396 60.3826 7.864 60.6946 8.8V0.915999ZM58.2466 22.372H59.5066C59.9386 22.372 60.2386 22.276 60.4066 22.084C60.5986 21.892 60.6946 21.568 60.6946 21.112V11.284C60.6946 10.828 60.5986 10.504 60.4066 10.312C60.2386 10.12 59.9386 10.024 59.5066 10.024H58.2466C57.8146 10.024 57.5266 10.096 57.3826 10.24C57.2386 10.384 57.1666 10.66 57.1666 11.068V21.328C57.1666 21.76 57.2386 22.048 57.3826 22.192C57.5266 22.312 57.8146 22.372 58.2466 22.372ZM73.1993 7.396H73.9193V10.204H72.6233C71.1113 10.204 70.3553 11.092 70.3553 12.868V25H67.1153V7.432H70.3553V9.592C70.5473 8.968 70.8833 8.452 71.3633 8.044C71.8673 7.612 72.4793 7.396 73.1993 7.396ZM78.8254 7.432H82.6774C84.9094 7.432 86.0254 8.5 86.0254 10.636V21.832C86.0254 23.944 84.9094 25 82.6774 25H78.8254C76.6174 25 75.5134 23.944 75.5134 21.832V10.636C75.5134 8.5 76.6174 7.432 78.8254 7.432ZM82.8214 21.364V11.068C82.8214 10.636 82.7494 10.348 82.6054 10.204C82.4614 10.06 82.1734 9.988 81.7414 9.988H79.7614C79.3294 9.988 79.0414 10.06 78.8974 10.204C78.7774 10.348 78.7174 10.636 78.7174 11.068V21.364C78.7174 21.796 78.7774 22.084 78.8974 22.228C79.0414 22.372 79.3294 22.444 79.7614 22.444H81.7414C82.1734 22.444 82.4614 22.372 82.6054 22.228C82.7494 22.084 82.8214 21.796 82.8214 21.364ZM94.4896 7.432H95.7496C97.9336 7.432 99.0256 8.5 99.0256 10.636V21.832C99.0256 23.944 97.9336 25 95.7496 25H94.4896C93.3136 25 92.5696 24.532 92.2576 23.596V29.968H89.0176V7.432H92.2576V8.836C92.5696 7.9 93.3136 7.432 94.4896 7.432ZM95.7856 21.328V11.104C95.7856 10.672 95.7136 10.396 95.5696 10.276C95.4256 10.132 95.1376 10.06 94.7056 10.06H93.4456C93.0136 10.06 92.7016 10.156 92.5096 10.348C92.3416 10.54 92.2576 10.864 92.2576 11.32V21.112C92.2576 21.568 92.3416 21.892 92.5096 22.084C92.7016 22.276 93.0136 22.372 93.4456 22.372H94.7056C95.1376 22.372 95.4256 22.312 95.5696 22.192C95.7136 22.048 95.7856 21.76 95.7856 21.328Z" fill="white"/>
</svg>
